<?xml version="1.0" encoding="UTF-8"?>
<svg version="1.1" xmlns="http://www.w3.org/2000/svg" width="16" height="16">
<path d="M0 0 C0.99 0.66 1.98 1.32 3 2 C2.67 5.63 2.34 9.26 2 13 C-1.96 13 -5.92 13 -10 13 C-10.33 9.37 -10.66 5.74 -11 2 C-6.97955018 -0.9562131 -4.80761695 -1.35867436 0 0 Z " fill="#B68274" transform="translate(12,2)"/>
<path d="M0 0 C3.3 0 6.6 0 10 0 C10 1.98 10 3.96 10 6 C9.34 6 8.68 6 8 6 C7.67 4.35 7.34 2.7 7 1 C5.68 1 4.36 1 3 1 C2.67 2.65 2.34 4.3 2 6 C1.34 6 0.68 6 0 6 C0 4.02 0 2.04 0 0 Z " fill="#303232" transform="translate(3,8)"/>
<path d="M0 0 C1.32 0 2.64 0 4 0 C4.12375 0.804375 4.2475 1.60875 4.375 2.4375 C4.684375 3.7059375 4.684375 3.7059375 5 5 C5.66 5.33 6.32 5.66 7 6 C3.7 6 0.4 6 -3 6 C-2.34 5.67 -1.68 5.34 -1 5 C-0.34444881 2.47266765 -0.34444881 2.47266765 0 0 Z " fill="#BB9428" transform="translate(6,9)"/>
<path d="M0 0 C0.99 0.33 1.98 0.66 3 1 C2.34 1 1.68 1 1 1 C1.33 1.99 1.66 2.98 2 4 C0.35 4 -1.3 4 -3 4 C-3 6.64 -3 9.28 -3 12 C-3.33 12 -3.66 12 -4 12 C-4 8.7 -4 5.4 -4 2 C-2.68 1.34 -1.36 0.68 0 0 Z " fill="#D7D3D2" transform="translate(6,3)"/>
</svg>
